<svg xmlns="http://www.w3.org/2000/svg" xmlns:xlink="http://www.w3.org/1999/xlink" id="Layer_1_copy" x="0" y="0" version="1.1" viewBox="0 0 800 800" xml:space="preserve" style="enable-background:new 0 0 800 800"><style type="text/css">.st0,.st3{fill:none}.st3{stroke:#f5f5f5;stroke-width:12;stroke-miterlimit:10;transform-origin:center;stroke-dasharray:226.2037,226.2037;-webkit-animation:rotating 2s linear infinite;-moz-animation:rotating 2s linear infinite;-ms-animation:rotating 2s linear infinite;-o-animation:rotating 2s linear infinite;animation:rotating 2s linear infinite}.st4{fill:#f5f5f5}.st5{font-family:&apos;Ubuntu-Bold&apos;}.st6{font-size:36.6189px}.st7{letter-spacing:3}</style><switch><g><rect width="280" height="56" x="260" y="372" class="st0"/><g><circle cx="400" cy="400" r="288" class="st3"/></g><g><g><text class="st4 st5 st6 st7" transform="matrix(1 0 0 1 178.1433 523.6572)">MARKO</text><text class="st4 st5 st6 st7" transform="matrix(1 0 0 1 368.8596 523.8398)">GOLEMOVIĆ</text></g><g><path d="M275.37,331.24c1.67,0,2.78-1.72,2.1-3.25c-0.22-0.5-0.45-1-0.67-1.49c-4.92-10.87-9.64-20.97-14.17-30.3 c-4.26-8.75-8.04-16.2-11.36-22.32c-0.4-0.74-1.17-1.19-2.02-1.19h-39.63c-1.14,0-2.12,0.83-2.28,1.96 c-1.82,12.77-3.5,26.98-5.06,42.62c-0.38,3.78-0.74,7.6-1.09,11.45c-0.12,1.35,0.94,2.52,2.29,2.52H275.37z" class="st4"/><path d="M404.51,331.24c1.35,0,2.42-1.17,2.29-2.52c-0.35-3.85-0.72-7.67-1.09-11.45 c-1.56-15.64-3.24-29.85-5.06-42.62c-0.16-1.13-1.13-1.96-2.28-1.96h-37.61c-0.84,0-1.62,0.45-2.02,1.19 c-3.32,6.13-7.11,13.57-11.36,22.32c-4.54,9.33-9.26,19.43-14.18,30.3c-0.22,0.5-0.45,0.99-0.67,1.49 c-0.68,1.52,0.43,3.25,2.1,3.25H404.51z" class="st4"/><path d="M502.71,331.24c0.8,0,1.54-0.42,1.96-1.11c1.16-1.88,2.41-3.67,3.77-5.36 c9.33-11.64,24.48-17.46,45.45-17.46c9.42,0,18.13,1.2,26.11,3.61c6.99,2.11,13.29,4.55,18.88,7.32 c1.24,0.62,2.74,0.04,3.21-1.27l11.45-31.81c0.38-1.06-0.05-2.24-1.04-2.79c-1.5-0.83-3.48-1.85-5.96-3.06 c-3.56-1.73-8.08-3.41-13.56-5.05c-5.48-1.63-12.02-3.07-19.62-4.33c-7.6-1.25-16.11-1.88-25.54-1.88 c-13.85,0-26.89,2.31-39.1,6.93c-12.22,4.62-22.85,11.4-31.88,20.34c-9.05,8.95-16.16,19.87-21.35,32.75 c0,0.01-0.01,0.02-0.01,0.03c-0.6,1.49,0.54,3.12,2.15,3.12H502.71z" class="st4"/><path d="M410.04,368.63c-0.36-5.15-0.75-10.22-1.14-15.25c-0.09-1.2-1.09-2.12-2.29-2.12h-37.5 c-1.34,0-2.39,1.14-2.29,2.47c1.39,18.6,2.49,37.08,3.26,55.44c0.92,22.03,1.67,42.45,2.24,61.26c0.04,1.24,1.05,2.22,2.3,2.22 h39.21c1.31,0,2.36-1.09,2.3-2.4c-0.75-15.08-1.62-31.11-2.62-48.1C412.45,404.26,411.29,386.42,410.04,368.63z" class="st4"/><path d="M572.06,369.34v65.34c0,1.13-0.82,2.09-1.94,2.27c-2.23,0.38-4.71,0.64-7.44,0.78 c-3.56,0.19-7.84,0.29-12.84,0.29c-9.23,0-17.31-1.59-24.24-4.76c-6.92-3.17-12.69-7.65-17.31-13.42 c-4.62-5.77-8.08-12.65-10.39-20.63c-2.31-7.98-3.46-16.88-3.46-26.69c0-6.64,0.51-12.81,1.52-18.52 c0.25-1.42-0.81-2.73-2.26-2.73h-42.42c-1.15,0-2.13,0.84-2.29,1.97c-0.85,6.12-1.3,12.54-1.3,19.29 c0,16.55,2.35,31.26,7.07,44.15c4.71,12.89,11.4,23.76,20.05,32.61c8.66,8.85,19.09,15.58,31.31,20.2 c12.21,4.62,25.83,6.93,40.83,6.93c17.5,0,32.22-1.2,44.15-3.61c10.86-2.19,19.01-4.26,24.45-6.21 c0.92-0.33,1.52-1.19,1.52-2.17v-95.08c0-1.27-1.03-2.3-2.3-2.3h-40.42C573.09,367.04,572.06,368.07,572.06,369.34z" class="st4"/><path d="M201.39,351.27c-1.2,0-2.2,0.92-2.29,2.12c-0.4,5.03-0.78,10.1-1.14,15.25 c-1.25,17.8-2.41,35.64-3.46,53.53c-1.01,16.99-1.88,33.02-2.62,48.1c-0.06,1.31,0.98,2.4,2.3,2.4h39.21 c1.24,0,2.26-0.98,2.3-2.22c0.57-18.82,1.31-39.24,2.24-61.26c0.77-18.35,1.87-36.83,3.26-55.43c0.1-1.33-0.95-2.47-2.29-2.47 H201.39z" class="st4"/><path d="M323.79,351.27c-0.92,0-1.75,0.54-2.12,1.39c-1.02,2.38-2.05,4.77-3.07,7.17 c-4.03,9.49-7.86,18.5-11.48,27.05c-0.79,1.87-3.44,1.87-4.23,0c-3.63-8.54-7.45-17.56-11.48-27.05 c-1.02-2.4-2.04-4.79-3.07-7.17c-0.36-0.84-1.19-1.39-2.11-1.39h-35.6c-1.65,0-2.77,1.69-2.11,3.21 c1.7,3.93,3.46,8.01,5.31,12.28c4.24,9.81,8.44,19.62,12.59,29.43c4.15,9.81,8.16,19.19,12.02,28.13 c3.58,8.3,6.66,15.49,9.25,21.55c0.36,0.85,1.19,1.39,2.11,1.39h28.41c0.92,0,1.75-0.54,2.11-1.39 c2.58-6.07,5.67-13.25,9.25-21.55c3.86-8.94,7.86-18.32,12.01-28.13c4.15-9.81,8.35-19.62,12.59-29.43 c1.84-4.26,3.61-8.35,5.3-12.28c0.66-1.52-0.46-3.21-2.11-3.21H323.79z" class="st4"/></g></g></g></switch></svg>